<mxfile host="app.diagrams.net" agent="Mozilla/5.0 (Macintosh; Intel Mac OS X 10_15_7) AppleWebKit/537.36 (KHTML, like Gecko) Chrome/141.0.0.0 Safari/537.36" version="28.2.7">
  <diagram name="Seite-1" id="UZIhS9Y9MdjXqw4mlf7s">
    <mxGraphModel dx="3659" dy="1023" grid="1" gridSize="10" guides="1" tooltips="1" connect="1" arrows="1" fold="1" page="1" pageScale="1" pageWidth="827" pageHeight="1169" math="0" shadow="0">
      <root>
        <mxCell id="0" />
        <mxCell id="1" parent="0" />
        <mxCell id="Pr2Uw5ijxEZGtC7btGxp-7" value="" style="edgeStyle=orthogonalEdgeStyle;rounded=0;orthogonalLoop=1;jettySize=auto;html=1;" parent="1" source="dIiDGgfdL44ax7ytaZIA-1" target="Pr2Uw5ijxEZGtC7btGxp-6" edge="1">
          <mxGeometry relative="1" as="geometry" />
        </mxCell>
        <mxCell id="dIiDGgfdL44ax7ytaZIA-1" value="POS System" style="whiteSpace=wrap;html=1;aspect=fixed;fillColor=#dae8fc;strokeColor=#6c8ebf;" parent="1" vertex="1">
          <mxGeometry x="-730" y="330" width="80" height="80" as="geometry" />
        </mxCell>
        <mxCell id="VpA88QxoI-SMjy5soita-19" value="" style="edgeStyle=orthogonalEdgeStyle;rounded=0;orthogonalLoop=1;jettySize=auto;html=1;" edge="1" parent="1" source="Pr2Uw5ijxEZGtC7btGxp-5" target="Pr2Uw5ijxEZGtC7btGxp-17">
          <mxGeometry relative="1" as="geometry" />
        </mxCell>
        <mxCell id="Pr2Uw5ijxEZGtC7btGxp-5" value="Sales Data Integration Service" style="whiteSpace=wrap;html=1;aspect=fixed;fillColor=#fff2cc;strokeColor=#d6b656;" parent="1" vertex="1">
          <mxGeometry x="-730" y="570" width="80" height="80" as="geometry" />
        </mxCell>
        <mxCell id="Pr2Uw5ijxEZGtC7btGxp-6" value="REST / Kafka" style="rhombus;whiteSpace=wrap;html=1;fillColor=#dae8fc;strokeColor=#6c8ebf;" parent="1" vertex="1">
          <mxGeometry x="-730" y="440" width="80" height="80" as="geometry" />
        </mxCell>
        <mxCell id="Pr2Uw5ijxEZGtC7btGxp-8" value="" style="endArrow=classic;html=1;rounded=0;exitX=0.5;exitY=1;exitDx=0;exitDy=0;entryX=0.5;entryY=0;entryDx=0;entryDy=0;" parent="1" source="Pr2Uw5ijxEZGtC7btGxp-6" target="Pr2Uw5ijxEZGtC7btGxp-5" edge="1">
          <mxGeometry width="50" height="50" relative="1" as="geometry">
            <mxPoint x="-720" y="830" as="sourcePoint" />
            <mxPoint x="-670" y="780" as="targetPoint" />
          </mxGeometry>
        </mxCell>
        <mxCell id="Pr2Uw5ijxEZGtC7btGxp-12" value="" style="edgeStyle=orthogonalEdgeStyle;rounded=0;orthogonalLoop=1;jettySize=auto;html=1;" parent="1" source="Pr2Uw5ijxEZGtC7btGxp-9" target="Pr2Uw5ijxEZGtC7btGxp-10" edge="1">
          <mxGeometry relative="1" as="geometry">
            <Array as="points">
              <mxPoint x="-880" y="780" />
            </Array>
          </mxGeometry>
        </mxCell>
        <mxCell id="Pr2Uw5ijxEZGtC7btGxp-14" value="" style="edgeStyle=orthogonalEdgeStyle;rounded=0;orthogonalLoop=1;jettySize=auto;html=1;" parent="1" source="Pr2Uw5ijxEZGtC7btGxp-9" target="Pr2Uw5ijxEZGtC7btGxp-13" edge="1">
          <mxGeometry relative="1" as="geometry" />
        </mxCell>
        <mxCell id="Pr2Uw5ijxEZGtC7btGxp-16" value="" style="edgeStyle=orthogonalEdgeStyle;rounded=0;orthogonalLoop=1;jettySize=auto;html=1;" parent="1" source="Pr2Uw5ijxEZGtC7btGxp-9" edge="1">
          <mxGeometry relative="1" as="geometry">
            <mxPoint x="-1080" y="900" as="targetPoint" />
          </mxGeometry>
        </mxCell>
        <mxCell id="Pr2Uw5ijxEZGtC7btGxp-9" value="ERP" style="whiteSpace=wrap;html=1;aspect=fixed;" parent="1" vertex="1">
          <mxGeometry x="-1000" y="740" width="80" height="80" as="geometry" />
        </mxCell>
        <mxCell id="Pr2Uw5ijxEZGtC7btGxp-10" value="Artikel" style="ellipse;whiteSpace=wrap;html=1;" parent="1" vertex="1">
          <mxGeometry x="-920" y="900" width="80" height="80" as="geometry" />
        </mxCell>
        <mxCell id="Pr2Uw5ijxEZGtC7btGxp-13" value="Preis" style="ellipse;whiteSpace=wrap;html=1;" parent="1" vertex="1">
          <mxGeometry x="-1000" y="900" width="80" height="80" as="geometry" />
        </mxCell>
        <mxCell id="Pr2Uw5ijxEZGtC7btGxp-15" value="Bestand" style="ellipse;whiteSpace=wrap;html=1;" parent="1" vertex="1">
          <mxGeometry x="-1080" y="900" width="80" height="80" as="geometry" />
        </mxCell>
        <mxCell id="Pr2Uw5ijxEZGtC7btGxp-19" value="" style="edgeStyle=orthogonalEdgeStyle;rounded=0;orthogonalLoop=1;jettySize=auto;html=1;" parent="1" source="Pr2Uw5ijxEZGtC7btGxp-17" target="Pr2Uw5ijxEZGtC7btGxp-18" edge="1">
          <mxGeometry relative="1" as="geometry" />
        </mxCell>
        <mxCell id="Pr2Uw5ijxEZGtC7btGxp-17" value="Transaction Validation Service" style="whiteSpace=wrap;html=1;aspect=fixed;fillColor=#fff2cc;strokeColor=#d6b656;" parent="1" vertex="1">
          <mxGeometry x="-870" y="570" width="80" height="80" as="geometry" />
        </mxCell>
        <mxCell id="Pr2Uw5ijxEZGtC7btGxp-20" value="" style="edgeStyle=orthogonalEdgeStyle;rounded=0;orthogonalLoop=1;jettySize=auto;html=1;" parent="1" source="Pr2Uw5ijxEZGtC7btGxp-18" target="Pr2Uw5ijxEZGtC7btGxp-9" edge="1">
          <mxGeometry relative="1" as="geometry" />
        </mxCell>
        <mxCell id="Pr2Uw5ijxEZGtC7btGxp-18" value="Inventory Update Service" style="whiteSpace=wrap;html=1;aspect=fixed;fillColor=#fff2cc;strokeColor=#d6b656;" parent="1" vertex="1">
          <mxGeometry x="-1000" y="570" width="80" height="80" as="geometry" />
        </mxCell>
        <mxCell id="Pr2Uw5ijxEZGtC7btGxp-21" value="Analytics Service" style="whiteSpace=wrap;html=1;aspect=fixed;fillColor=#fff2cc;strokeColor=#d6b656;" parent="1" vertex="1">
          <mxGeometry x="-520" y="570" width="80" height="80" as="geometry" />
        </mxCell>
        <mxCell id="Pr2Uw5ijxEZGtC7btGxp-22" value="" style="endArrow=classic;html=1;rounded=0;entryX=0;entryY=0.5;entryDx=0;entryDy=0;exitX=0;exitY=0;exitDx=0;exitDy=0;" parent="1" source="Pr2Uw5ijxEZGtC7btGxp-9" target="dIiDGgfdL44ax7ytaZIA-1" edge="1">
          <mxGeometry width="50" height="50" relative="1" as="geometry">
            <mxPoint x="-1170" y="760" as="sourcePoint" />
            <mxPoint x="-670" y="730" as="targetPoint" />
            <Array as="points">
              <mxPoint x="-1170" y="740" />
              <mxPoint x="-1170" y="370" />
            </Array>
          </mxGeometry>
        </mxCell>
        <mxCell id="VpA88QxoI-SMjy5soita-24" style="edgeStyle=orthogonalEdgeStyle;rounded=0;orthogonalLoop=1;jettySize=auto;html=1;entryX=1;entryY=0.5;entryDx=0;entryDy=0;" edge="1" parent="1" source="Pr2Uw5ijxEZGtC7btGxp-24" target="Pr2Uw5ijxEZGtC7btGxp-9">
          <mxGeometry relative="1" as="geometry" />
        </mxCell>
        <mxCell id="Pr2Uw5ijxEZGtC7btGxp-24" value="B2B Order System" style="whiteSpace=wrap;html=1;aspect=fixed;fillColor=#fff2cc;strokeColor=#d6b656;" parent="1" vertex="1">
          <mxGeometry x="-420" y="740" width="80" height="80" as="geometry" />
        </mxCell>
        <mxCell id="VpA88QxoI-SMjy5soita-1" value="POS System" style="whiteSpace=wrap;html=1;aspect=fixed;fillColor=#dae8fc;strokeColor=#6c8ebf;" vertex="1" parent="1">
          <mxGeometry x="-703" y="300" width="80" height="80" as="geometry" />
        </mxCell>
        <mxCell id="VpA88QxoI-SMjy5soita-2" value="POS System" style="whiteSpace=wrap;html=1;aspect=fixed;fillColor=#dae8fc;strokeColor=#6c8ebf;" vertex="1" parent="1">
          <mxGeometry x="-663" y="270" width="80" height="80" as="geometry" />
        </mxCell>
        <mxCell id="VpA88QxoI-SMjy5soita-14" value="Transaktionelles System&lt;div&gt;OLTP&lt;/div&gt;" style="whiteSpace=wrap;html=1;aspect=fixed;fillColor=#dae8fc;strokeColor=#6c8ebf;" vertex="1" parent="1">
          <mxGeometry x="-840" y="70" width="80" height="80" as="geometry" />
        </mxCell>
        <mxCell id="VpA88QxoI-SMjy5soita-16" value="Analytical system" style="whiteSpace=wrap;html=1;aspect=fixed;fillColor=#f8cecc;strokeColor=#b85450;" vertex="1" parent="1">
          <mxGeometry x="-520" y="70" width="80" height="80" as="geometry" />
        </mxCell>
        <mxCell id="VpA88QxoI-SMjy5soita-17" value="Stream / near realtime" style="text;html=1;whiteSpace=wrap;strokeColor=none;fillColor=none;align=center;verticalAlign=middle;rounded=0;" vertex="1" parent="1">
          <mxGeometry x="-643" y="465" width="83" height="30" as="geometry" />
        </mxCell>
        <mxCell id="VpA88QxoI-SMjy5soita-20" value="" style="endArrow=classic;html=1;rounded=0;entryX=0;entryY=0.5;entryDx=0;entryDy=0;" edge="1" parent="1" target="Pr2Uw5ijxEZGtC7btGxp-21">
          <mxGeometry width="50" height="50" relative="1" as="geometry">
            <mxPoint x="-648" y="610" as="sourcePoint" />
            <mxPoint x="-598" y="560" as="targetPoint" />
          </mxGeometry>
        </mxCell>
        <mxCell id="VpA88QxoI-SMjy5soita-25" value="Reporting" style="whiteSpace=wrap;html=1;aspect=fixed;fillColor=#fff2cc;strokeColor=#d6b656;" vertex="1" parent="1">
          <mxGeometry x="-420" y="470" width="80" height="80" as="geometry" />
        </mxCell>
        <mxCell id="VpA88QxoI-SMjy5soita-26" value="" style="endArrow=classic;html=1;rounded=0;entryX=0.5;entryY=1;entryDx=0;entryDy=0;" edge="1" parent="1" target="VpA88QxoI-SMjy5soita-25">
          <mxGeometry width="50" height="50" relative="1" as="geometry">
            <mxPoint x="-438" y="610" as="sourcePoint" />
            <mxPoint x="-388" y="560" as="targetPoint" />
            <Array as="points">
              <mxPoint x="-380" y="610" />
            </Array>
          </mxGeometry>
        </mxCell>
        <mxCell id="VpA88QxoI-SMjy5soita-27" value="" style="endArrow=classic;html=1;rounded=0;entryX=0.5;entryY=0;entryDx=0;entryDy=0;" edge="1" parent="1" target="Pr2Uw5ijxEZGtC7btGxp-24">
          <mxGeometry width="50" height="50" relative="1" as="geometry">
            <mxPoint x="-440" y="610" as="sourcePoint" />
            <mxPoint x="-390" y="560" as="targetPoint" />
            <Array as="points">
              <mxPoint x="-380" y="610" />
            </Array>
          </mxGeometry>
        </mxCell>
        <mxCell id="VpA88QxoI-SMjy5soita-28" value="hourly batch" style="text;html=1;whiteSpace=wrap;strokeColor=none;fillColor=none;align=center;verticalAlign=middle;rounded=0;" vertex="1" parent="1">
          <mxGeometry x="-610" y="570" width="60" height="30" as="geometry" />
        </mxCell>
        <mxCell id="VpA88QxoI-SMjy5soita-29" value="" style="endArrow=classic;html=1;rounded=0;entryX=0.5;entryY=1;entryDx=0;entryDy=0;" edge="1" parent="1" target="Pr2Uw5ijxEZGtC7btGxp-21">
          <mxGeometry width="50" height="50" relative="1" as="geometry">
            <mxPoint x="-830" y="650" as="sourcePoint" />
            <mxPoint x="-780" y="600" as="targetPoint" />
            <Array as="points">
              <mxPoint x="-830" y="720" />
              <mxPoint x="-480" y="720" />
            </Array>
          </mxGeometry>
        </mxCell>
        <mxCell id="VpA88QxoI-SMjy5soita-30" value="n-Instances of Service" style="text;html=1;whiteSpace=wrap;strokeColor=none;fillColor=none;align=center;verticalAlign=middle;rounded=0;" vertex="1" parent="1">
          <mxGeometry x="-1330" y="280" width="60" height="30" as="geometry" />
        </mxCell>
        <mxCell id="VpA88QxoI-SMjy5soita-31" value="IoC + CI/CD&lt;div&gt;&lt;br&gt;&lt;/div&gt;&lt;div&gt;MS are in Container,&amp;nbsp; Docker Container,&amp;nbsp; orchestrated by Kubernetes&lt;/div&gt;" style="text;html=1;whiteSpace=wrap;strokeColor=none;fillColor=none;align=center;verticalAlign=middle;rounded=0;" vertex="1" parent="1">
          <mxGeometry x="-1420" y="435" width="60" height="30" as="geometry" />
        </mxCell>
        <mxCell id="VpA88QxoI-SMjy5soita-32" value="" style="endArrow=none;dashed=1;html=1;rounded=0;" edge="1" parent="1">
          <mxGeometry width="50" height="50" relative="1" as="geometry">
            <mxPoint x="-1230" y="60" as="sourcePoint" />
            <mxPoint x="-1230" y="60" as="targetPoint" />
            <Array as="points">
              <mxPoint x="-1230" y="980" />
              <mxPoint x="-550" y="990" />
              <mxPoint x="-550" y="60" />
            </Array>
          </mxGeometry>
        </mxCell>
      </root>
    </mxGraphModel>
  </diagram>
</mxfile>
